<?xml version="1.0" standalone="no"?><!DOCTYPE svg PUBLIC "-//W3C//DTD SVG 1.1//EN" "http://www.w3.org/Graphics/SVG/1.1/DTD/svg11.dtd"><svg t="1709563174084" class="icon" viewBox="0 0 1349 1024" version="1.1" xmlns="http://www.w3.org/2000/svg" p-id="3131" width="42.15625" height="32" xmlns:xlink="http://www.w3.org/1999/xlink"><path d="M817.884255 0.380917a513.858297 513.858297 0 0 0-468.93743 307.465124h-212.463561a40.519836 40.519836 0 0 0 0 80.887913H518.462394a123.532385 123.532385 0 0 1 0 246.913009H135.876226a40.519836 40.519836 0 0 0 0 80.887913H518.462394a204.116778 204.116778 0 0 0 166.935655-87.868858A176.648275 176.648275 0 1 0 685.398049 394.956101a204.420297 204.420297 0 0 0-166.935655-87.717099h-79.673835a430.693989 430.693989 0 1 1 379.399216 635.114287 427.658796 427.658796 0 0 1-225.970173-63.739068h212.463561a367.106681 367.106681 0 1 0 0-734.213362 40.519836 40.519836 0 0 0 0 81.039672 286.218768 286.218768 0 0 1 0 572.285777H42.999298a40.519836 40.519836 0 1 0 0 80.887913h418.553214a506.422073 506.422073 0 0 0 356.331743 144.77874 511.885421 511.885421 0 1 0 0-1023.012044z m-95.608602 511.733662a95.760362 95.760362 0 1 1 95.608602 95.305082 95.760362 95.760362 0 0 1-95.608602-95.305082z" fill="#ffffff" p-id="3132"></path></svg>